<?xml version="1.0" encoding="UTF-8"?>
<svg version="1.1" xmlns="http://www.w3.org/2000/svg" width="1024" height="1024">
<path d="M0 0 C337.92 0 675.84 0 1024 0 C1024 337.92 1024 675.84 1024 1024 C686.08 1024 348.16 1024 0 1024 C0 686.08 0 348.16 0 0 Z " fill="#FEFEFE" transform="translate(0,0)"/>
<path d="M0 0 C1.9375 0.0625 1.9375 0.0625 4 1 C4.72998129 2.97776939 5.40136342 4.97859487 6 7 C7.05960938 7.19335938 8.11921875 7.38671875 9.2109375 7.5859375 C10.59903553 7.84855064 11.98705224 8.11159386 13.375 8.375 C14.07367187 8.50132812 14.77234375 8.62765625 15.4921875 8.7578125 C20.7734375 9.7734375 20.7734375 9.7734375 23 12 C22.9831543 13.95874023 22.9831543 13.95874023 22.63671875 16.37109375 C21.91771175 22.28351908 21.81625941 28.11134768 21.8125 34.0625 C21.80025391 35.08666016 21.78800781 36.11082031 21.77539062 37.16601562 C21.75919552 45.61446083 21.86043802 53.40591807 27.6875 60 C28.39519531 60.83015625 29.10289062 61.6603125 29.83203125 62.515625 C30.90517578 63.74539063 30.90517578 63.74539063 32 65 C39.68184358 74.24804469 39.68184358 74.24804469 41 80 C41.22042969 80.91072266 41.22042969 80.91072266 41.4453125 81.83984375 C42.30477391 85.50278643 43.03640886 89.18636082 43.7578125 92.87890625 C43.95709351 93.89706421 43.95709351 93.89706421 44.16040039 94.93579102 C44.42642087 96.30142739 44.68868907 97.66780057 44.94702148 99.03491211 C45.36743867 102.29739386 45.36743867 102.29739386 47 105 C46.95875 106.19625 46.9175 107.3925 46.875 108.625 C46.80867439 112.00760612 47.13107469 113.29885029 48.5625 116.5625 C50.46968259 121.12315402 49.78478855 124.27534679 48.4453125 128.92578125 C47.95400018 131.21426231 48.00514551 133.16683258 48.125 135.5 C48.17594112 139.396996 47.70762226 141.0840991 45 144 C44.67 144.86625 44.34 145.7325 44 146.625 C43 149 43 149 40 151 C39.21011855 152.95385067 39.21011855 152.95385067 38.8125 155.125 C38.544375 156.40375 38.27625 157.6825 38 159 C37.195625 158.979375 36.39125 158.95875 35.5625 158.9375 C33.06645115 158.70366379 33.06645115 158.70366379 32 160 C31.75585984 163.06983652 31.61589326 166.1385673 31.4765625 169.21484375 C31.31929687 170.13394531 31.16203125 171.05304688 31 172 C29.515 172.99 29.515 172.99 28 174 C28.51257768 177.4171845 29.1703296 180.72793405 30.0625 184.0625 C30.85380873 187.11636554 31.19837249 189.82604014 31 193 C28.0986462 192.47248113 25.430946 191.81031533 22.625 190.875 C18.38366691 189.85122994 16.14773924 189.56714463 12 191 C7.66295429 195.05045678 5.61362445 199.52948773 5.375 205.4375 C5.58140977 209.76667336 6.37763894 213.74846009 7.44555664 217.94311523 C9.61644735 226.48615807 10.41231307 234.54824086 10.4375 243.375 C10.44716797 244.44379395 10.45683594 245.51258789 10.46679688 246.61376953 C10.35106254 257.62725303 8.59870462 267.1185733 1.55078125 275.78125 C-4.92437851 284.00160396 -7.3014761 291.97805361 -8.60546875 302.3125 C-9 305 -9 305 -10 307 C-10.7844912 313.91895513 -9.95845129 319.23678368 -6 325 C-4.45765486 326.81158245 -2.86543351 328.56699981 -1.26171875 330.32421875 C0.55695183 332.7397286 0.85512554 335.0300736 1 338 C-2.47422746 340.31615164 -3.80015277 340.13516171 -7.875 340.125 C-12.31745225 340.33781117 -12.31745225 340.33781117 -15.86328125 342.734375 C-18.45311959 346.92089833 -19.98304514 351.1163336 -20.53515625 356.01171875 C-20.62216797 356.76904297 -20.70917969 357.52636719 -20.79882812 358.30664062 C-20.88583984 359.09232422 -20.97285156 359.87800781 -21.0625 360.6875 C-21.19881836 361.88342773 -21.19881836 361.88342773 -21.33789062 363.10351562 C-21.56147277 365.068685 -21.78111684 367.0343017 -22 369 C-25 370 -25 370 -27.3125 370.375 C-32.48152657 371.5770992 -35.72514276 373.28399599 -38.6875 377.6875 C-39.06261719 378.31011719 -39.43773437 378.93273437 -39.82421875 379.57421875 C-40.40623047 380.27998047 -40.40623047 380.27998047 -41 381 C-41.99 381 -42.98 381 -44 381 C-46.96224853 375.82484644 -46.44998678 370.54992506 -45.4375 364.8125 C-44.80638505 361.94151607 -44.80638505 361.94151607 -45.75 358.9375 C-45.8325 357.968125 -45.915 356.99875 -46 356 C-44.83153589 354.86492058 -43.65237223 353.73813101 -42.4140625 352.6796875 C-38.33272671 347.83169194 -36.69158917 340.21390703 -37 334 C-38.918125 333.690625 -38.918125 333.690625 -40.875 333.375 C-41.59429688 333.25898437 -42.31359375 333.14296875 -43.0546875 333.0234375 C-43.69664062 333.01570313 -44.33859375 333.00796875 -45 333 C-47.38086477 335.38086477 -47.25741675 336.06554439 -47.4375 339.3125 C-47.70283091 342.35174494 -47.87550357 343.7976933 -49.5 346.4375 C-51.16978547 349.29005018 -51.21378152 350.80968016 -51.375 354.0625 C-51.68445074 358.67675442 -51.68445074 358.67675442 -54.5625 361.625 C-55.366875 362.07875 -56.17125 362.5325 -57 363 C-57.49628906 362.3503125 -57.99257813 361.700625 -58.50390625 361.03125 C-62.68482652 355.71572235 -62.68482652 355.71572235 -68.6875 353.0625 C-73.12604352 354.31869156 -74.48546235 356.19227156 -77 360 C-78.69222831 363.54562123 -79.13718182 365.92244424 -78.8125 369.8125 C-78.6204707 377.61102337 -81.31737954 384.77011797 -84 392 C-85 393 -85 393 -88.3125 393.3125 C-92 393 -92 393 -94.4375 391.375 C-96.5245904 388.20262259 -96.66101805 386.74576893 -96 383 C-94.7743346 381.14093705 -93.42798312 379.42547023 -92.046875 377.6796875 C-90.71950296 375.91286269 -90.71950296 375.91286269 -91.1875 373.0625 C-91.455625 372.381875 -91.72375 371.70125 -92 371 C-93.41750563 371.11509661 -94.83401169 371.24253658 -96.25 371.375 C-97.03890625 371.44460938 -97.8278125 371.51421875 -98.640625 371.5859375 C-101.15208673 372.02669072 -102.86728423 372.60318835 -105 374 C-105.391875 375.0725 -105.78375 376.145 -106.1875 377.25 C-107.51185643 380.87337968 -109.23833936 381.94863357 -112.5625 383.8125 C-115.49225713 385.55798842 -116.75928293 386.39364828 -118.03125 389.59765625 C-118.5055869 392.07746164 -118.84568541 394.48118766 -119 397 C-120.63388672 396.51466797 -120.63388672 396.51466797 -122.30078125 396.01953125 C-127.59227449 394.70392807 -132.7580733 394.65886992 -138.1875 394.6875 C-139.19820557 394.68878906 -140.20891113 394.69007813 -141.25024414 394.69140625 C-148.8601719 394.78897724 -155.72341505 395.6536156 -163 398 C-163 394 -163 394 -160.625 391.25 C-158 389 -158 389 -156 389 C-156.66 387.68 -157.32 386.36 -158 385 C-160.31 385 -162.62 385 -165 385 C-165.185625 385.639375 -165.37125 386.27875 -165.5625 386.9375 C-167 389 -167 389 -170.5 389.8125 C-174 390 -174 390 -176 389 C-176.31865451 385.99099098 -176.37990138 383.00458951 -176.4609375 379.98046875 C-177.10976138 376.39313091 -178.19820182 375.25088281 -181 373 C-181.66 372.67 -182.32 372.34 -183 372 C-183 372.66 -183 373.32 -183 374 C-184.6436814 375.68933922 -186.3142876 377.35259924 -188 379 C-191.82833552 383.57273409 -193.13184142 385.66163763 -193.0625 391.625 C-193.05347656 392.62789062 -193.04445313 393.63078125 -193.03515625 394.6640625 C-193.02355469 395.43492187 -193.01195312 396.20578125 -193 397 C-192.20078125 397.29003906 -191.4015625 397.58007812 -190.578125 397.87890625 C-188 399 -188 399 -186.75 400.9375 C-183.95902959 404.22685798 -180.06300641 404.87564603 -176 406 C-176.03332091 407.41765314 -176.10302504 408.83447371 -176.1875 410.25 C-176.23970703 411.43335938 -176.23970703 411.43335938 -176.29296875 412.640625 C-177.34117269 416.13849893 -178.87961889 417.1625342 -182 419 C-185.41096808 419.42328456 -188.6067763 419.50745503 -192.02929688 419.48828125 C-197.16948661 419.59547004 -200.08554091 420.66978854 -204 424 C-205.28151659 425.95666408 -205.28151659 425.95666408 -205.9375 428.125 C-207.78125782 432.82311093 -210.38031435 436.52767667 -213.34375 440.58984375 C-214.81659011 442.73310401 -215.92863564 444.76522763 -217 447.125 C-219.20439618 451.71202014 -221.94150209 455.85848488 -226 459 C-230.84684397 459.24644969 -233.36404125 458.02996562 -237 455 C-238.2375 454.5978125 -238.2375 454.5978125 -239.5 454.1875 C-242.9758406 452.53647572 -244.07164608 450.27820166 -246 447 C-246.86625 445.7315625 -246.86625 445.7315625 -247.75 444.4375 C-249.20262689 441.60487757 -249.47100154 440.14001024 -249 437 C-247.5 434.1875 -247.5 434.1875 -246 432 C-246.680625 432.165 -247.36125 432.33 -248.0625 432.5 C-252.06236191 433.18082756 -256.28416227 433.85791887 -260 432 C-260.59355614 429.35139573 -260.74209269 426.70802678 -261 424 C-260.34 423.67 -259.68 423.34 -259 423 C-259.33 419.04 -259.66 415.08 -260 411 C-252.68138801 407.21451104 -252.68138801 407.21451104 -248.625 405.9375 C-245.69177764 405.18442813 -245.69177764 405.18442813 -244 402 C-244.19536602 399.00800741 -244.19536602 399.00800741 -244.875 395.8125 C-245.18050781 394.18248047 -245.18050781 394.18248047 -245.4921875 392.51953125 C-245.74355469 391.27236328 -245.74355469 391.27236328 -246 390 C-252.95149601 389.3469367 -257.21970859 390.07573772 -262.9921875 394.1015625 C-263.65476562 394.39804687 -264.31734375 394.69453125 -265 395 C-267.0396754 394.1255532 -268.89983544 393.05813446 -270.81762695 391.94506836 C-276.03399776 389.01784201 -280.26144952 388.4085121 -286.1875 388.5625 C-286.96802734 388.55541016 -287.74855469 388.54832031 -288.55273438 388.54101562 C-293.22014758 388.59247989 -296.14936604 389.12284092 -300 392 C-314.23913043 400.95031056 -314.23913043 400.95031056 -322 400 C-322.99 399.67 -323.98 399.34 -325 399 C-324.67 400.32 -324.34 401.64 -324 403 C-324.825 402.896875 -325.65 402.79375 -326.5 402.6875 C-330.35571092 403.0317599 -332.23836173 404.28480013 -335.37890625 406.43359375 C-339.52785752 408.91307134 -343.98500735 410.67313357 -348.45263672 412.50024414 C-353.26108992 414.49511618 -353.26108992 414.49511618 -357 418 C-361.875 416.125 -361.875 416.125 -363 415 C-363.04063832 413.33382885 -363.042721 411.66611905 -363 410 C-366.07440927 409.15311411 -368.81256031 408.69455756 -372 409 C-374.45888899 410.58933265 -376.3370368 412.3337895 -378.37109375 414.43359375 C-380 416 -380 416 -382 416 C-382.66 420.29 -383.32 424.58 -384 429 C-382.68 429.66 -381.36 430.32 -380 431 C-379 432 -379 432 -378.9375 434.5625 C-378.958125 435.366875 -378.97875 436.17125 -379 437 C-381.55716205 436.56162936 -383.84961259 436.06266142 -386.25 435.0625 C-389.42958928 433.83402233 -392.57260281 433.20114076 -395.9140625 432.5625 C-398 432 -398 432 -401 430 C-403.62531524 429.83286431 -403.62531524 429.83286431 -406 430 C-406.268125 430.78375 -406.53625 431.5675 -406.8125 432.375 C-408 435 -408 435 -411 437 C-414.6875 436.125 -414.6875 436.125 -418 435 C-418.495 431.535 -418.495 431.535 -419 428 C-425.01339937 426.04071619 -430.69632197 424.58367389 -437 424 C-437 424.66 -437 425.32 -437 426 C-437.99 426 -438.98 426 -440 426 C-439.38125 426.886875 -438.7625 427.77375 -438.125 428.6875 C-433.70856102 435.571949 -433.70856102 435.571949 -434.625 440.0625 C-435.32629455 443.02027825 -435.32629455 443.02027825 -433.5625 445.1875 C-429.80902066 447.84240002 -425.52840984 450.34765635 -420.8125 449.69921875 C-418.79709792 449.1554648 -418.79709792 449.1554648 -418 447 C-417.0409375 446.5359375 -417.0409375 446.5359375 -416.0625 446.0625 C-413.68028507 445.04654078 -413.68028507 445.04654078 -412 442 C-409.125 442.75 -409.125 442.75 -406 444 C-404.8125 446.0625 -404.8125 446.0625 -404 448 C-403.01 448.33 -402.02 448.66 -401 449 C-401.66 449.680625 -402.32 450.36125 -403 451.0625 C-405.45320572 454.6656459 -405.08038832 456.73941882 -405 461 C-405.99 461.66 -406.98 462.32 -408 463 C-408.66 461.02 -409.32 459.04 -410 457 C-413.19003917 458.28963084 -413.19003917 458.28963084 -416 461 C-416.5412406 464.3854069 -416.35042185 467.59961015 -416 471 C-415.01 470.34 -414.02 469.68 -413 469 C-409.49639145 468.74047344 -406.8358849 468.65707286 -403.5625 470 C-399.93981287 471.41373156 -396.87476832 471.13134808 -393 471 C-393.71971619 474.75345656 -395.33112202 477.86091969 -397.0625 481.25 C-397.61035156 482.32765625 -398.15820312 483.4053125 -398.72265625 484.515625 C-399.14417969 485.33546875 -399.56570313 486.1553125 -400 487 C-399.01 487.33 -398.02 487.66 -397 488 C-397.33773437 488.56847656 -397.67546875 489.13695312 -398.0234375 489.72265625 C-400.07276418 493.27047904 -401.84137839 496.38817379 -402.875 500.375 C-404.28628912 504.92248716 -406.66577379 508.34474182 -409.34375 512.25390625 C-412.72919737 517.86704186 -413.51686417 523.71074521 -414.4375 530.09765625 C-415 533 -415 533 -415.99609375 535.40625 C-417.28531776 538.73716341 -417.6443531 541.89203594 -418.0625 545.4375 C-418.14556396 546.13182129 -418.22862793 546.82614258 -418.31420898 547.54150391 C-418.99680444 553.45196173 -419.42236779 559.36405958 -419.75390625 565.3046875 C-420 568 -420 568 -421 570 C-421.99 570 -422.98 570 -424 570 C-424 572.64 -424 575.28 -424 578 C-424.66 578 -425.32 578 -426 578 C-427.12880057 574.68885166 -428.21302675 571.41021743 -429 568 C-429.66 568 -430.32 568 -431 568 C-431 567.34 -431 566.68 -431 566 C-432.65 566 -434.3 566 -436 566 C-436.03738281 567.05960938 -436.07476562 568.11921875 -436.11328125 569.2109375 C-436.17893258 570.59899424 -436.24538021 571.98701349 -436.3125 573.375 C-436.33505859 574.07367187 -436.35761719 574.77234375 -436.38085938 575.4921875 C-436.48828125 577.5234375 -436.48828125 577.5234375 -437 581 C-437.99 581.66 -438.98 582.32 -440 583 C-441.04808041 584.97522846 -442.0520411 586.97481509 -443 589 C-444 590 -444 590 -446.625 590.375 C-451.12459052 589.8750455 -453.58357101 587.83017786 -457 585 C-456.505 582.525 -456.505 582.525 -456 580 C-453.69 580.33 -451.38 580.66 -449 581 C-448.34 579.68 -447.68 578.36 -447 577 C-447.845625 576.29875 -448.69125 575.5975 -449.5625 574.875 C-451.77430955 572.30485258 -451.99900304 571.08613704 -452.0390625 567.625 C-451.80787537 565.15900391 -451.52915629 562.69692281 -451.19921875 560.2421875 C-450.99850194 556.97561987 -451.05023656 555.58730514 -453 553 C-453.99 552.67 -454.98 552.34 -456 552 C-456.144375 552.886875 -456.28875 553.77375 -456.4375 554.6875 C-456.76446207 556.6129433 -457.12334782 558.53450723 -457.5625 560.4375 C-458.12810156 563.13411448 -458.12810156 563.13411448 -457.75 566.4375 C-458.09475876 571.35031239 -459.42582728 572.66410546 -463 576 C-465.625 577 -465.625 577 -468 577 C-468.99 576.34 -469.98 575.68 -471 575 C-472.2684375 575.0309375 -472.2684375 575.0309375 -473.5625 575.0625 C-474.366875 575.041875 -475.17125 575.02125 -476 575 C-478 572 -478 572 -477.8125 569.8125 C-476.74470692 566.11629318 -475.39755275 562.58502663 -474 559 C-473.01 559 -472.02 559 -471 559 C-471 556.03 -471 553.06 -471 550 C-472.32 549.67 -473.64 549.34 -475 549 C-475.33 549.66 -475.66 550.32 -476 551 C-476.66 551 -477.32 551 -478 551 C-478.625 549.125 -478.625 549.125 -479 547 C-478.34 546.34 -477.68 545.68 -477 545 C-476.79446977 542.20178558 -476.79446977 542.20178558 -476.9375 539.0625 C-477.03380442 535.61647666 -477.0950443 533.28513289 -476 530 C-475.34773438 529.69578125 -474.69546875 529.3915625 -474.0234375 529.078125 C-471.83786324 528.1847973 -471.83786324 528.1847973 -471.1640625 526.046875 C-470.98617187 525.28890625 -470.80828125 524.5309375 -470.625 523.75 C-469.60284558 520.18673543 -468.57204522 518.23165191 -465.8125 515.75 C-462.70984991 513.34139534 -462.70984991 513.34139534 -462.875 510.3125 C-462.91625 509.549375 -462.9575 508.78625 -463 508 C-461 506.1875 -461 506.1875 -459 505 C-459.495 503.515 -459.495 503.515 -460 502 C-456.71536341 499.81024227 -453.79303725 499.00193437 -450 498 C-450.05563651 496.16531168 -450.05563651 496.16531168 -451 494 C-452.5159375 492.824375 -452.5159375 492.824375 -454.0625 491.625 C-455.031875 490.75875 -456.00125 489.8925 -457 489 C-457.04165763 487.00043389 -457.04165763 484.99956611 -457 483 C-459.89419806 479.22877223 -462.68465359 477.55807177 -467.0859375 475.890625 C-470.76360762 474.17938258 -473.85109304 471.52730454 -477 469 C-477 470.32 -477 471.64 -477 473 C-476.34 473 -475.68 473 -475 473 C-473.7109375 474.4609375 -473.7109375 474.4609375 -472.375 476.375 C-471.92898438 477.00148438 -471.48296875 477.62796875 -471.0234375 478.2734375 C-470 480 -470 480 -470 482 C-470.886875 481.95875 -471.77375 481.9175 -472.6875 481.875 C-475.97277013 481.99897246 -478.05449295 482.61387904 -481 484 C-480.505 485.98 -480.505 485.98 -480 488 C-477.19235272 488.77426109 -477.19235272 488.77426109 -474 489 C-472.65210653 488.01971384 -471.31787285 487.02028865 -470 486 C-467.375 486.125 -467.375 486.125 -465 487 C-463 490 -463 490 -463.1875 492.4375 C-464 495 -464 495 -465.625 496.875 C-467.36627859 499.05164544 -467.36627859 499.05164544 -466.5 502.3125 C-465.73499086 507.95444242 -467.5298102 511.04398075 -470.80859375 515.40625 C-476.05647701 521.67593283 -476.05647701 521.67593283 -479.5703125 522.8828125 C-482 523 -482 523 -485 521 C-484.8125 519.1875 -484.8125 519.1875 -484 517 C-481.625 515.4375 -481.625 515.4375 -479 514 C-477.09602017 512.37809126 -476.09417525 511.19423646 -475 508.9375 C-474 507 -474 507 -471 505 C-470.56941515 501.19650051 -470.68907317 498.69958536 -472.25 495.1875 C-474.08283204 492.89645996 -475.24681712 491.94640662 -478 491 C-478.99 491 -479.98 491 -481 491 C-482.28333135 492.51422076 -482.28333135 492.51422076 -483.375 494.4375 C-485.08185077 496.95933357 -485.73438238 497.87690891 -488.5625 499.1875 C-491 499 -491 499 -493.375 497.5 C-495 495 -495 495 -494.5 491.5625 C-494.335 490.386875 -494.17 489.21125 -494 488 C-495.29352333 486.30225062 -496.62517293 484.63260714 -498 483 C-497.70731707 478.70731707 -497.70731707 478.70731707 -496 477 C-492.37940768 476.70643846 -490.12296038 477.14935681 -487 479 C-489.39278714 475.01202143 -491.6670722 474.35403994 -496 473 C-497.70703125 471.734375 -497.70703125 471.734375 -499 470 C-499.07421875 467.73828125 -499.07421875 467.73828125 -498.6875 465.3125 C-498.56761719 464.50425781 -498.44773437 463.69601562 -498.32421875 462.86328125 C-498.21722656 462.24839844 -498.11023438 461.63351562 -498 461 C-495.69 460.34 -493.38 459.68 -491 459 C-491.33 456.36 -491.66 453.72 -492 451 C-490.19140625 450.31640625 -490.19140625 450.31640625 -488 450 C-486.40234375 451.21484375 -486.40234375 451.21484375 -484.9375 452.9375 C-483.52596138 454.64895035 -483.52596138 454.64895035 -482 456 C-481.01 456 -480.02 456 -479 456 C-479.4640625 454.9171875 -479.4640625 454.9171875 -479.9375 453.8125 C-480.92560539 451.19692691 -481.5287754 448.74881018 -482 446 C-480.35 445.67 -478.7 445.34 -477 445 C-476.67 445.99 -476.34 446.98 -476 448 C-475.443125 447.484375 -474.88625 446.96875 -474.3125 446.4375 C-472 445 -472 445 -469.25 445.3125 C-468.13625 445.6528125 -468.13625 445.6528125 -467 446 C-466.401875 444.88625 -465.80375 443.7725 -465.1875 442.625 C-463.62304383 439.71187472 -462.90092502 438.93395001 -460 437 C-458.80175933 434.39621568 -458.80175933 434.39621568 -457.875 431.4375 C-456.07632094 426.07632094 -456.07632094 426.07632094 -455 425 C-452.71822945 424.50881652 -450.42730701 424.10112965 -448.12890625 423.6953125 C-445.63581873 423.12400642 -445.63581873 423.12400642 -444 420 C-443.66656449 417.45792029 -443.66656449 417.45792029 -444 415 C-444.66 414.34 -445.32 413.68 -446 413 C-446.87604882 409.99474642 -447.2283352 407.12429386 -447 404 C-444.18233899 400.76797707 -441.01685894 399.37720878 -437 398 C-436.236875 398.639375 -435.47375 399.27875 -434.6875 399.9375 C-430.52531458 403.13173532 -427.16942854 403.54415037 -422 403 C-419.13026202 400.36940685 -418.05912009 398.16553625 -416.75 394.5 C-413.98363584 388.96727169 -409.51392771 387.30210344 -404.171875 384.53515625 C-397.11895515 380.93446221 -397.11895515 380.93446221 -392 375 C-392 375.66 -392 376.32 -392 377 C-390.11934615 375.36019283 -388.24126774 373.7176357 -386.3671875 372.0703125 C-384.77722475 370.67975102 -383.17806717 369.29963923 -381.5703125 367.9296875 C-380.78398437 367.25164062 -379.99765625 366.57359375 -379.1875 365.875 C-378.09501953 364.94300781 -378.09501953 364.94300781 -376.98046875 363.9921875 C-374.88623612 362.05608968 -374.88623612 362.05608968 -373.5234375 359.4375 C-371.78051285 356.64882056 -370.28258392 355.70924772 -367.4375 354.125 C-362.87357133 351.28994319 -362.36797913 349.17877814 -361 344 C-355.99654166 340.95441666 -350.24463504 339.97177179 -344.57421875 338.6484375 C-342.03434034 338.10683191 -342.03434034 338.10683191 -340 337 C-337.3276379 336.86584528 -334.67749512 336.95681459 -332 337 C-334.475 338.98 -334.475 338.98 -337 341 C-331.80647642 340.83582806 -326.61524101 340.64124992 -321.42382812 340.42016602 C-319.663067 340.34926612 -317.90196854 340.28623705 -316.140625 340.23168945 C-306.42807222 339.92541293 -298.45951823 339.38331299 -289.57519531 335.07592773 C-285.5175244 333.38061529 -281.81835517 333.55149953 -277.5 333.875 C-271.87516407 334.42100878 -271.87516407 334.42100878 -266.71875 332.5703125 C-266.1515625 332.05210937 -265.584375 331.53390625 -265 331 C-262.15139127 330.02592306 -259.43852828 329.81093458 -256.4375 329.75 C-255.67308594 329.72421875 -254.90867187 329.6984375 -254.12109375 329.671875 C-252 330 -252 330 -250.22265625 331.265625 C-249 333 -249 333 -249 337 C-247.3603125 336.938125 -247.3603125 336.938125 -245.6875 336.875 C-242 337 -242 337 -239 339 C-235.88636885 339.21998481 -232.99442161 338.88137693 -230 338 C-228.30027975 335.69519712 -228.30027975 335.69519712 -227 333 C-224.75455002 331.41138233 -222.4611871 330.2538123 -220 329 C-220.144375 328.154375 -220.28875 327.30875 -220.4375 326.4375 C-220.623125 325.303125 -220.80875 324.16875 -221 323 C-221.2475 321.845 -221.495 320.69 -221.75 319.5 C-222.06143681 315.13988467 -221.43979874 313.62273146 -219 310 C-215.36331337 305.92958011 -211.40923246 302.32361684 -207.1875 298.875 C-198.16225536 291.06024182 -187.42931066 278.44774346 -185.609375 266.41796875 C-185.56172201 263.89633138 -185.72578656 261.50654258 -186 259 C-186.08121094 257.98808594 -186.16242188 256.97617187 -186.24609375 255.93359375 C-186.46599161 253.28467027 -186.71861783 250.64298253 -187 248 C-186.35933594 247.56429687 -185.71867187 247.12859375 -185.05859375 246.6796875 C-180.86637947 243.79324488 -176.82301533 240.93772432 -173.0625 237.5 C-172.051875 236.675 -171.04125 235.85 -170 235 C-167 236 -167 236 -165.25 238.5 C-163.68055573 242.89444395 -163.80329706 246.50111677 -165 251 C-165.66 251.66 -166.32 252.32 -167 253 C-167.53663683 255.09664521 -167.53663683 255.09664521 -167.75 257.4375 C-167.89695312 258.61119141 -167.89695312 258.61119141 -168.046875 259.80859375 C-168.18979085 262.2968249 -168.18979085 262.2968249 -166 265 C-166.37931547 268.03452373 -167.25040681 269.37561021 -169 272 C-167.96431405 273.70735301 -167.96431405 273.70735301 -166 275 C-160.93673688 274.90072033 -157.22868636 273.33849835 -152.89453125 270.9375 C-150.94065422 269.97063302 -149.11511401 269.49618868 -147 269 C-131.27752302 291.48202867 -131.27752302 291.48202867 -125.4375 300.1875 C-125.0448999 300.77168701 -124.6522998 301.35587402 -124.24780273 301.95776367 C-121.07292262 306.74902066 -118.31360128 311.70385357 -115.66796875 316.8046875 C-113.57762311 319.55591525 -112.31293141 319.49831692 -109 320 C-108.47792969 318.96568848 -107.95585938 317.93137695 -107.41796875 316.86572266 C-101.9480203 306.1926025 -95.77183319 296.26187646 -89 286.375 C-79.5785856 272.54826218 -70.76446286 258.5436737 -62.8125 243.8125 C-62.30203125 242.86906738 -61.7915625 241.92563477 -61.265625 240.95361328 C-59.83775318 238.30556839 -58.41716395 235.65378728 -57 233 C-56.65243652 232.35305176 -56.30487305 231.70610352 -55.94677734 231.03955078 C-47.24212277 214.74477602 -43.11622624 198.37493223 -46.25 180.0625 C-46.37914795 179.27979736 -46.5082959 178.49709473 -46.64135742 177.69067383 C-47.57083387 172.44503291 -48.95668328 167.79923115 -51.42578125 163.04296875 C-52.25308388 160.09957232 -51.3137495 158.72732799 -50 156 C-42.93883579 139.25495343 -35.9521242 120.49111383 -38 102 C-38.66 101.34 -39.32 100.68 -40 100 C-41.65 100.66 -43.3 101.32 -45 102 C-48.45167403 99.52187506 -50.23163306 98.20393865 -51 94 C-49.948125 93.360625 -48.89625 92.72125 -47.8125 92.0625 C-43.37943729 88.88186761 -40.97056005 85.04847023 -39 80 C-38.29984181 75.56566477 -38.87075027 72.97736072 -40.9375 69.125 C-43.18682504 64.84881063 -45.19225309 60.88492585 -44 56 C-41.07549194 52.44717966 -37.66244233 49.76002498 -34 47 C-29.78197092 43.79719855 -27.3282543 41.19834775 -26 36 C-25.8197295 34.14886415 -25.67600432 32.29392618 -25.5625 30.4375 C-25.20818231 25.38673602 -24.50449956 22.69919398 -21 19 C-17.87038534 17.635809 -16.58286618 17.78535168 -13.390625 18.9609375 C-10.69578611 21.25947655 -10.61766988 21.66650697 -10.29296875 25.01171875 C-10.23330648 26.5695669 -10.19900987 28.12855229 -10.1875 29.6875 C-10.14979492 30.88342773 -10.14979492 30.88342773 -10.11132812 32.10351562 C-10.05249685 34.0684802 -10.02337596 36.03429391 -10 38 C-9.34 38 -8.68 38 -8 38 C-8 40.31 -8 42.62 -8 45 C-7.01 45 -6.02 45 -5 45 C-4.34 42.69 -3.68 40.38 -3 38 C2.90486258 36.43340381 2.90486258 36.43340381 6.0234375 38.046875 C7.73737075 39.29209997 9.37522444 40.64049392 11 42 C11 39.69 11 37.38 11 35 C11.66 34.67 12.32 34.34 13 34 C13 31.03 13 28.06 13 25 C7.06 25.495 7.06 25.495 1 26 C-2.4538613 20.2435645 -4.64545491 15.77418674 -3.48828125 9.0078125 C-1.48561947 1.48561947 -1.48561947 1.48561947 0 0 Z " fill="#151515" transform="translate(624,315)"/>
<path d="M0 0 C10.63528229 4.805572 18.68290389 18.95152679 24.609375 28.515625 C28.29322838 34.42337144 32.57887334 39.67777816 37.109375 44.953125 C37.80804687 45.78714844 38.50671875 46.62117188 39.2265625 47.48046875 C52.67038849 63.06644284 68.56375013 73.66519142 88.109375 79.953125 C88.96402344 80.3140625 89.81867188 80.675 90.69921875 81.046875 C93.21619741 81.99329161 95.38116162 82.25031703 98.046875 82.515625 C101.35202614 83.10671015 102.73231362 83.53982254 105.01953125 86.046875 C106.05181328 87.64982891 107.0337929 89.2867331 107.953125 90.95703125 C108.95229809 93.10366875 108.95229809 93.10366875 111.109375 93.953125 C116.107921 94.72752932 119.9854886 94.45406547 124.2421875 91.609375 C125.59215637 90.58209533 126.92270995 89.52888253 128.234375 88.453125 C128.93159668 87.90358154 129.62881836 87.35403809 130.34716797 86.7878418 C137.58552147 80.97279833 142.85302636 74.77486598 147.65234375 66.8359375 C149.28123656 64.73104116 150.66792194 63.94643567 153.109375 62.953125 C155.45915585 66.47779628 155.50793861 67.80251103 155.109375 71.953125 C153.90014648 74.81811523 153.90014648 74.81811523 152.23046875 77.76171875 C151.34391602 79.37723633 151.34391602 79.37723633 150.43945312 81.02539062 C149.17846204 83.26758634 147.91283695 85.50718227 146.64257812 87.74414062 C142.90926826 94.01966794 142.90926826 94.01966794 141.95703125 101.05078125 C142.83636714 104.02902347 142.83636714 104.02902347 145.09765625 105.375 C147.109375 106.953125 147.109375 106.953125 147.90234375 110.71875 C148.05218074 112.21181597 148.18305823 113.70688209 148.296875 115.203125 C148.4354748 116.68756769 148.57479016 118.17194376 148.71484375 119.65625 C148.77720215 120.37361328 148.83956055 121.09097656 148.90380859 121.83007812 C149.20003017 124.88939264 149.64719526 127.91479561 150.109375 130.953125 C153.47863466 130.53196754 156.02876093 129.54018625 158.984375 127.953125 C162.75620144 125.97399173 165.88076297 125.30550934 170.109375 124.953125 C168.68685654 128.65167299 166.3305007 130.79817571 163.44921875 133.390625 C161.89162328 135.20706287 161.51660361 136.62035865 161.109375 138.953125 C159.93181641 139.24316406 159.93181641 139.24316406 158.73046875 139.5390625 C156.56454828 140.07589187 154.40053493 140.62046202 152.23828125 141.171875 C150.44128724 141.62056264 148.63860271 142.04969368 146.82421875 142.421875 C144.7743676 142.82463656 144.7743676 142.82463656 142.109375 143.953125 C140.59144856 146.44953628 140.59144856 146.44953628 140.109375 148.953125 C136.234375 147.078125 136.234375 147.078125 135.109375 145.953125 C133.17092265 145.93846197 131.23141415 146.01664607 129.296875 146.140625 C128.23855469 146.19605469 127.18023438 146.25148437 126.08984375 146.30859375 C122.99255319 146.66728368 122.99255319 146.66728368 121.29296875 149.0390625 C119.109375 150.953125 119.109375 150.953125 117.18334961 151.10571289 C114.77128209 150.93937236 112.38497183 150.67796319 109.984375 150.390625 C102.047614 149.7286679 96.62211014 149.89153406 90.109375 154.953125 C89.27277344 155.59765625 88.43617188 156.2421875 87.57421875 156.90625 C72.31261322 169.70482116 64.67806258 186.37104035 62.63671875 205.79296875 C62.109375 208.953125 62.109375 208.953125 60.109375 210.953125 C58.234375 210.890625 58.234375 210.890625 56.109375 209.953125 C55.24119141 208.79103516 55.24119141 208.79103516 54.35546875 207.60546875 C51.78977468 204.57571871 49.60362907 203.31622889 46.046875 201.578125 C45.44472168 201.28123779 44.84256836 200.98435059 44.22216797 200.6784668 C39.95798758 198.64311878 35.62601529 197.07165594 31.14819336 195.5769043 C22.46680578 192.65910811 15.68551927 189.09672742 8.62353516 183.21606445 C1.61915425 177.41511699 -5.06491063 174.23170436 -14.265625 174.640625 C-22.25753488 175.59204284 -28.88499377 179.70207394 -34.890625 184.953125 C-36.46870594 187.05723292 -37.74834841 189.11496411 -38.953125 191.44921875 C-39.2625 191.94550781 -39.571875 192.44179688 -39.890625 192.953125 C-40.550625 192.953125 -41.210625 192.953125 -41.890625 192.953125 C-42.18195312 192.27765625 -42.47328125 191.6021875 -42.7734375 190.90625 C-46.18575254 183.40721795 -46.18575254 183.40721795 -52.890625 178.953125 C-56.25452372 178.66061207 -59.52516766 178.71368535 -62.890625 178.953125 C-63.18710937 179.56929687 -63.48359375 180.18546875 -63.7890625 180.8203125 C-64.890625 182.953125 -64.890625 182.953125 -66.515625 185.078125 C-68.08774622 186.83440426 -68.08774622 186.83440426 -67.890625 188.953125 C-66.900625 189.695625 -66.900625 189.695625 -65.890625 190.453125 C-64.900625 191.195625 -64.900625 191.195625 -63.890625 191.953125 C-63.890625 192.613125 -63.890625 193.273125 -63.890625 193.953125 C-62.570625 194.613125 -61.250625 195.273125 -59.890625 195.953125 C-59.890625 196.943125 -59.890625 197.933125 -59.890625 198.953125 C-58.45322987 198.98024566 -57.01568637 198.99957567 -55.578125 199.015625 C-54.77761719 199.02722656 -53.97710938 199.03882813 -53.15234375 199.05078125 C-50.72201166 199.04970355 -50.72201166 199.04970355 -47.890625 197.953125 C-47.395625 200.428125 -47.395625 200.428125 -46.890625 202.953125 C-45.9625 203.22125 -45.034375 203.489375 -44.078125 203.765625 C-39.06618608 205.63281793 -37.46020205 208.3725746 -34.890625 212.953125 C-34.478125 213.63375 -34.065625 214.314375 -33.640625 215.015625 C-32.890625 216.953125 -32.890625 216.953125 -33.015625 219.078125 C-33.890625 220.953125 -33.890625 220.953125 -35.515625 222.265625 C-39.78849735 223.5025091 -43.76367761 222.32877413 -47.890625 220.953125 C-52.66374998 220.32743446 -55.84261602 220.19499085 -59.828125 223.078125 C-62.02916124 225.82296923 -62.02916124 225.82296923 -62.828125 229.015625 C-64.24997652 232.94662626 -66.28558719 234.00039618 -69.890625 235.953125 C-70.550625 235.953125 -71.210625 235.953125 -71.890625 235.953125 C-71.890625 238.263125 -71.890625 240.573125 -71.890625 242.953125 C-73.515625 243.703125 -73.515625 243.703125 -75.890625 243.953125 C-80.46461941 241.43276074 -83.9024851 239.09490313 -85.5 234.015625 C-86.23165292 230.38258983 -86.47054589 227.98036291 -84.609375 224.68359375 C-83.50040078 223.19014027 -82.38970757 221.69796178 -81.27734375 220.20703125 C-78.97512272 216.46511144 -79.01273844 213.1774851 -79.890625 208.953125 C-81.74588331 203.50514426 -84.61627085 199.81046899 -88.890625 195.953125 C-90.55729167 194.28645833 -92.22395833 192.61979167 -93.890625 190.953125 C-94.43847656 190.56125 -94.98632812 190.169375 -95.55078125 189.765625 C-97.72574733 186.82339683 -96.99985559 184.13191017 -96.703125 180.578125 C-96.60644531 179.27101563 -96.50976562 177.96390625 -96.41015625 176.6171875 C-95.81165264 172.39616202 -95.36363381 169.27073947 -92.11328125 166.36328125 C-91.04400391 165.69619141 -91.04400391 165.69619141 -89.953125 165.015625 C-88.7465625 164.25185547 -88.7465625 164.25185547 -87.515625 163.47265625 C-84.872831 161.9428246 -82.17923777 160.57779834 -79.453125 159.203125 C-73.38610788 155.95079192 -67.83143063 151.65644691 -63.890625 145.953125 C-64.04927409 140.91412786 -66.59387995 138.4910953 -69.890625 134.953125 C-70.550625 134.623125 -71.210625 134.293125 -71.890625 133.953125 C-71.6359151 130.21737978 -71.25826192 128.37482618 -68.765625 125.515625 C-65.890625 123.953125 -65.890625 123.953125 -62.453125 123.890625 C-58.85270588 124.96443421 -57.54609512 126.17652927 -54.89453125 128.68359375 C-51.07511258 131.10330344 -46.52741926 131.50710622 -42.1328125 132.27734375 C-39.31044054 132.86562128 -37.39695104 133.62323771 -34.890625 134.953125 C-31.17079801 134.85774482 -29.9653963 134.01939956 -27.140625 131.515625 C-23.82541026 127.73996377 -23.79627251 126.02971249 -23.890625 121.08984375 C-23.97795752 98.03873763 -23.97795752 98.03873763 -15.9140625 88.8046875 C-12.73380886 84.32286287 -13.02359123 80.06744608 -12.99609375 74.7109375 C-12.88856632 70.87977513 -12.24609245 67.60403179 -11.328125 63.890625 C-8.48675274 51.16127727 -9.96339291 41.81161289 -13.73583984 29.58984375 C-15.68565911 23.13526964 -17.38356645 16.70029449 -15.890625 9.953125 C-14.5 7.63671875 -14.5 7.63671875 -12.890625 5.953125 C-12.1275 5.994375 -11.364375 6.035625 -10.578125 6.078125 C-7.88633776 6.23629567 -7.88633776 6.23629567 -6.375 4.59765625 C-5.36139825 3.47911089 -4.37411746 2.33600637 -3.41796875 1.16796875 C-1.890625 -0.046875 -1.890625 -0.046875 0 0 Z " fill="#151515" transform="translate(667.890625,83.046875)"/>
<path d="M0 0 C0.64195312 0.46019531 1.28390625 0.92039062 1.9453125 1.39453125 C12.48549757 9.59507883 20.69374309 23.85444791 22.75 37.02734375 C26.26610477 78.83602698 -1.50761297 114.88373846 -24 148 C-25.77559228 150.64266166 -27.54432148 153.28987437 -29.3125 155.9375 C-29.73362061 156.5651123 -30.15474121 157.19272461 -30.58862305 157.83935547 C-32.81935684 161.17579638 -34.96903842 164.53619174 -37 168 C-40.29233981 164.93649995 -42.66993382 161.69929495 -45.125 157.9375 C-46.00465899 156.59729552 -46.88491911 155.2574855 -47.765625 153.91796875 C-48.26642578 153.15403809 -48.76722656 152.39010742 -49.28320312 151.60302734 C-51.25235308 148.61737934 -53.24212709 145.64606583 -55.234375 142.67578125 C-83.9257466 99.89220025 -83.9257466 99.89220025 -93.375 80.0625 C-93.70918945 79.36431152 -94.04337891 78.66612305 -94.38769531 77.94677734 C-101.69401268 62.25437274 -101.84214785 44.49087363 -97 28 C-93.30462277 18.49617076 -88.2918193 11.08160469 -81 4 C-80.45988281 3.43925781 -79.91976563 2.87851562 -79.36328125 2.30078125 C-58.19313515 -18.01615997 -22.48271566 -16.8431119 0 0 Z " fill="#D5191A" transform="translate(550,458)"/>
<path d="M0 0 C2.82257525 2.29744497 4.80087741 4.7386516 7 7.625 C8.88199004 10.15154541 8.88199004 10.15154541 11.75 11.5 C12.4925 11.995 13.235 12.49 14 13 C13.96261719 13.76183594 13.92523438 14.52367187 13.88671875 15.30859375 C14.04131478 18.98158214 15.48711335 20.02245314 18.0625 22.5625 C20.34765625 24.81640625 20.34765625 24.81640625 22 27 C21.9140625 29.2265625 21.9140625 29.2265625 21 31 C20.113125 31.268125 19.22625 31.53625 18.3125 31.8125 C13.75077288 33.44783614 11.90901265 36.25876982 9 40 C7.92454217 41.29823124 6.84143889 42.59017509 5.75 43.875 C5.27046875 44.44992187 4.7909375 45.02484375 4.296875 45.6171875 C3 47 3 47 1 48 C0.60645698 50.45291361 0.60645698 50.45291361 0.5 53.3125 C0.2988698 57.07866301 -0.07344038 59.72950969 -2 63 C-2.66 63 -3.32 63 -4 63 C-4.45439453 62.11248047 -4.45439453 62.11248047 -4.91796875 61.20703125 C-9.07273468 53.34106705 -9.07273468 53.34106705 -16 48 C-22.89010902 47.43993443 -31.27158972 47.06678386 -36.94140625 51.52734375 C-41.21928858 56.04545273 -43.57397459 60.99374372 -45.76171875 66.77734375 C-47 69 -47 69 -49.14453125 69.81640625 C-49.75683594 69.87699219 -50.36914062 69.93757812 -51 70 C-51.144375 70.61875 -51.28875 71.2375 -51.4375 71.875 C-52 74 -52 74 -53 76 C-53.15725856 80.16735187 -52.98317108 83.94441928 -52 88 C-52.59167969 87.79503906 -53.18335938 87.59007812 -53.79296875 87.37890625 C-61.22800119 84.82388198 -61.22800119 84.82388198 -69 84 C-71.625 82.125 -71.625 82.125 -74 79 C-74.42627168 76.40098433 -74.56240516 73.93740632 -74.56640625 71.3046875 C-75.1440938 68.23409601 -76.50462083 67.72869711 -79 66 C-79.51020728 61.91834173 -79.31361802 60.47042703 -77 57 C-76.83286431 54.37468476 -76.83286431 54.37468476 -77 52 C-79.70365533 51.49474052 -79.70365533 51.49474052 -83 52 C-84.91217389 53.43413042 -86.58546452 55.02173974 -88.3203125 56.6640625 C-90 58 -90 58 -92.9375 58.375 C-93.9584375 58.189375 -93.9584375 58.189375 -95 58 C-95.8125 56.375 -95.8125 56.375 -96 54 C-93.40362889 49.78089695 -93.40362889 49.78089695 -91 48 C-87.1875 47.625 -87.1875 47.625 -84 48 C-84.103125 47.2575 -84.20625 46.515 -84.3125 45.75 C-84 43 -84 43 -82 40.9375 C-79.63869973 39.41249358 -77.53769452 38.32177255 -75 37.1875 C-67.02784643 33.26873033 -64.90781057 25.70321624 -62.11328125 17.79296875 C-61 15 -61 15 -59 13 C-56.14171413 12.63355309 -54.62746004 12.55181426 -52.25 14.25 C-50.87958164 16.16858571 -50.3981173 17.69091968 -50 20 C-42.21351892 20.57677638 -36.05261221 18.63419794 -29.5 14.375 C-27.10589761 10.58433788 -26.63658444 6.38908218 -26 2 C-25.31679688 2.19464844 -24.63359375 2.38929688 -23.9296875 2.58984375 C-20.30868458 3.09678416 -17.66840855 2.43478329 -14.125 1.5625 C-9.29382459 0.37859658 -4.98560564 -0.3625895 0 0 Z " fill="#161616" transform="translate(328,722)"/>
<path d="M0 0 C5.50583301 3.92723753 9.63580177 8.92927421 11.25 15.55078125 C12.27782813 22.6792667 11.19654445 28.35966471 7.23046875 34.39453125 C2.55093562 40.28203689 -2.54076794 43.45993573 -9.9921875 44.60546875 C-17.0350791 44.99287746 -22.60955059 43.34870529 -28.32421875 39.1953125 C-33.69795692 33.77707132 -36.29936552 28.05635798 -36.76171875 20.4453125 C-36.61511301 13.96533894 -34.15159032 8.44212931 -29.90234375 3.5625 C-21.65259782 -3.84452995 -9.71485175 -5.75247951 0 0 Z " fill="#FEFCFB" transform="translate(524.32421875,484.8046875)"/>
<path d="M0 0 C0.94746094 0.26425781 1.89492187 0.52851562 2.87109375 0.80078125 C7.49730676 2.32494722 7.49730676 2.32494722 9.5625 3.6875 C10.3125 7.3125 10.3125 7.3125 10.5625 10.6875 C12.8725 11.0175 15.1825 11.3475 17.5625 11.6875 C17.91725877 15.50115679 17.8244932 17.27192458 15.75 20.5625 C13.5625 22.6875 13.5625 22.6875 10.5625 22.6875 C9.9025 24.0075 9.2425 25.3275 8.5625 26.6875 C2.81949814 25.7175708 -1.98080857 24.69852228 -6.4375 20.6875 C-7.37956295 17.67289857 -7.78834705 15.74849529 -6.7890625 12.7265625 C-6.21457946 10.64587828 -6.21457946 10.64587828 -7.43359375 8.8359375 C-8.14708984 7.95808594 -8.14708984 7.95808594 -8.875 7.0625 C-11.4375 3.86461172 -11.4375 3.86461172 -11.4375 1.6875 C-10.4475 1.6875 -9.4575 1.6875 -8.4375 1.6875 C-8.4375 1.0275 -8.4375 0.3675 -8.4375 -0.3125 C-4.87540164 -1.49986612 -3.55518682 -1.01783503 0 0 Z " fill="#F5F5F5" transform="translate(195.4375,739.3125)"/>
<path d="M0 0 C5.03985731 0.44469329 7.37634988 2.71343362 11 6 C10.125 9.875 10.125 9.875 9 11 C6.30345146 11.07319621 3.63308542 11.09242537 0.9375 11.0625 C-0.20041992 11.05573242 -0.20041992 11.05573242 -1.36132812 11.04882812 C-3.24091871 11.0370068 -5.12046899 11.01907078 -7 11 C-6.40716379 7.60807637 -5.23256811 5.7892243 -2.9375 3.25 C-2.38964844 2.63640625 -1.84179688 2.0228125 -1.27734375 1.390625 C-0.85582031 0.93171875 -0.43429687 0.4728125 0 0 Z " fill="#141414" transform="translate(349,716)"/>
<path d="M0 0 C0.33 0.66 0.66 1.32 1 2 C1.66 2 2.32 2 3 2 C3.33670385 5.21866049 3.21600572 6.66768351 1.42578125 9.421875 C0.72839844 10.19015625 0.03101563 10.9584375 -0.6875 11.75 C-1.37199219 12.52859375 -2.05648437 13.3071875 -2.76171875 14.109375 C-5.28133545 16.23763762 -6.72112744 16.85168266 -10 17 C-10.99 16.34 -11.98 15.68 -13 15 C-12.8125 13.1875 -12.8125 13.1875 -12 11 C-9.625 9.4375 -9.625 9.4375 -7 8 C-5.07502301 6.36020478 -4.07242178 5.14484357 -2.9375 2.875 C-2 1 -2 1 0 0 Z " fill="#151515" transform="translate(152,821)"/>
<path d="M0 0 C0.66 0 1.32 0 2 0 C1.55884724 4.52181579 0.30621887 7.46934629 -2.01171875 11.25390625 C-3.40512348 13.71577152 -4.20813309 16.29445472 -5 19 C-8.875 18.125 -8.875 18.125 -10 17 C-10.375 13.6875 -10.375 13.6875 -10 10 C-7.8125 7.9375 -7.8125 7.9375 -5 6 C-4.07523855 4.94125323 -3.17929163 3.85670717 -2.3125 2.75 C-1.549375 1.8425 -0.78625 0.935 0 0 Z " fill="#151515" transform="translate(189,913)"/>
<path d="M0 0 C2.40234375 0.3359375 2.40234375 0.3359375 4.65234375 1.7109375 C7.57545898 6.09561035 7.40234375 11.172484 7.40234375 16.3359375 C9.38234375 16.3359375 11.36234375 16.3359375 13.40234375 16.3359375 C13.73234375 15.3459375 14.06234375 14.3559375 14.40234375 13.3359375 C17.37534389 11.31854455 19.85205567 10.88077236 23.40234375 11.3359375 C25.21484375 12.8359375 25.21484375 12.8359375 26.40234375 14.3359375 C26.07234375 15.3259375 25.74234375 16.3159375 25.40234375 17.3359375 C24.74234375 16.3459375 24.08234375 15.3559375 23.40234375 14.3359375 C19.81877134 14.08577877 19.81877134 14.08577877 16.40234375 14.3359375 C16.21671875 14.9753125 16.03109375 15.6146875 15.83984375 16.2734375 C14.40234375 18.3359375 14.40234375 18.3359375 10.90234375 19.1484375 C7.40234375 19.3359375 7.40234375 19.3359375 5.40234375 18.3359375 C5.08368924 15.32692848 5.02244237 12.34052701 4.94140625 9.31640625 C4.29258237 5.72906841 3.20414193 4.58682031 0.40234375 2.3359375 C-0.25765625 2.0059375 -0.91765625 1.6759375 -1.59765625 1.3359375 C-1.59765625 1.9959375 -1.59765625 2.6559375 -1.59765625 3.3359375 C-3.91015625 5.9609375 -3.91015625 5.9609375 -6.59765625 8.3359375 C-7.58765625 8.3359375 -8.57765625 8.3359375 -9.59765625 8.3359375 C-8.55365879 6.98806758 -7.48663559 5.65801021 -6.41015625 4.3359375 C-5.81847656 3.5934375 -5.22679687 2.8509375 -4.6171875 2.0859375 C-2.59765625 0.3359375 -2.59765625 0.3359375 0 0 Z " fill="#080808" transform="translate(442.59765625,685.6640625)"/>
<path d="M0 0 C5.875 1.875 5.875 1.875 7 3 C7.45977011 8.28735632 7.45977011 8.28735632 5.75 10.9375 C4 12 4 12 1.9375 11.875 C0 11 0 11 -2 8 C-2.25 4.9375 -2.25 4.9375 -2 2 C-1.34 1.34 -0.68 0.68 0 0 Z " fill="#181818" transform="translate(161,929)"/>
<path d="M0 0 C4.19510842 1.58305978 6.63384911 4.71474435 9.5 8 C17.10130053 16.47443085 25.5855126 23.58103132 35 30 C27.23294849 30 18.58577875 20.92699089 13 16 C10.52405601 13.44087212 8.25467504 10.75388533 6 8 C4.85592717 6.68596513 3.71018774 5.37337877 2.5625 4.0625 C0 1 0 1 0 0 Z " fill="#0A0A0A" transform="translate(699,124)"/>
<path d="M0 0 C1 3 1 3 0 6 C-0.20831457 7.33290514 -0.38396231 8.67113251 -0.53515625 10.01171875 C-0.62216797 10.76904297 -0.70917969 11.52636719 -0.79882812 12.30664062 C-0.88583984 13.09232422 -0.97285156 13.87800781 -1.0625 14.6875 C-1.15337891 15.48478516 -1.24425781 16.28207031 -1.33789062 17.10351562 C-1.56147277 19.068685 -1.78111684 21.0343017 -2 23 C-5 24 -5 24 -7.3125 24.375 C-10.15585414 24.926241 -10.15585414 24.926241 -13.125 26.5625 C-16 28 -16 28 -19 28 C-15.79528984 24.28253621 -12.60240754 22.64371698 -8 21 C-6.68 21 -5.36 21 -4 21 C-3.96261719 20.07058594 -3.92523437 19.14117188 -3.88671875 18.18359375 C-3.23374341 5.90509666 -3.23374341 5.90509666 0 0 Z " fill="#060606" transform="translate(604,661)"/>
<path d="M0 0 C0.33 0 0.66 0 1 0 C1.01981934 0.74048584 1.03963867 1.48097168 1.06005859 2.24389648 C1.15609606 5.64208411 1.26545316 9.0397221 1.375 12.4375 C1.42140625 14.18450195 1.42140625 14.18450195 1.46875 15.96679688 C1.73031945 23.70489305 2.54095886 30.62287657 5 38 C2 37 2 37 0.875 35.4375 C-1.47066441 28.90314913 -1.15567414 21.66817112 -1.125 14.8125 C-1.12886719 13.93658203 -1.13273438 13.06066406 -1.13671875 12.15820312 C-1.13038208 7.97916942 -1.06259577 4.07328378 0 0 Z " fill="#080808" transform="translate(644,335)"/>
<path d="M0 0 C0.66 0 1.32 0 2 0 C4 3 4 3 3.8125 5.4375 C3 8 3 8 1.375 9.875 C-0.65930713 13.0189292 0.43064537 15.39408732 1 19 C0.1875 21.875 0.1875 21.875 -1 24 C-1.66 24.33 -2.32 24.66 -3 25 C-2.67 23.68 -2.34 22.36 -2 21 C-2.66 21 -3.32 21 -4 21 C-3.67 17.7 -3.34 14.4 -3 11 C-2.01 10.67 -1.02 10.34 0 10 C0.74926071 6.33694766 1.2380014 3.57644848 0 0 Z " fill="#0B0B0B" transform="translate(157,802)"/>
<path d="M0 0 C-1.65 1.32 -3.3 2.64 -5 4 C-4.35675781 3.98839844 -3.71351563 3.97679687 -3.05078125 3.96484375 C4.34614069 3.89098005 11.63414095 4.34421605 19 5 C19 5.33 19 5.66 19 6 C14.91828536 6.28402303 10.83515849 6.52130287 6.75 6.75 C5.59113281 6.83121094 4.43226563 6.91242187 3.23828125 6.99609375 C2.12324219 7.05410156 1.00820313 7.11210938 -0.140625 7.171875 C-1.16704102 7.2347168 -2.19345703 7.29755859 -3.25097656 7.36230469 C-6.75089004 6.90103723 -7.87307297 5.75241902 -10 3 C-10 2.34 -10 1.68 -10 1 C-6.78548731 -0.60725635 -3.56387464 -0.05748185 0 0 Z " fill="#040404" transform="translate(292,652)"/>
<path d="M0 0 C0.33 0.99 0.66 1.98 1 3 C2.31647119 3.69937532 3.65022151 4.36729133 5 5 C6.20272819 7.40545638 6.10071472 8.94996953 6.0625 11.625 C6.05347656 12.44226563 6.04445313 13.25953125 6.03515625 14.1015625 C6.02355469 14.72804688 6.01195312 15.35453125 6 16 C7.32 16.33 8.64 16.66 10 17 C10 17.66 10 18.32 10 19 C11.98 18.67 13.96 18.34 16 18 C14.35 19.32 12.7 20.64 11 22 C8.30117245 20.26654941 6.02476354 18.50146758 4 16 C3.4234461 13.3437338 3.30909094 10.98321529 3.36328125 8.26953125 C3.21463521 5.80964705 3.21463521 5.80964705 0.98046875 4.19921875 C0.32691406 3.80347656 -0.32664063 3.40773438 -1 3 C-0.67 2.01 -0.34 1.02 0 0 Z " fill="#090909" transform="translate(250,785)"/>
<path d="M0 0 C0.99 0.33 1.98 0.66 3 1 C4.2624764 13.00323712 4.2624764 13.00323712 3 19 C3.33 19.66 3.66 20.32 4 21 C2.68 21 1.36 21 0 21 C-0.33 18.36 -0.66 15.72 -1 13 C-0.34 12.67 0.32 12.34 1 12 C0.67 8.04 0.34 4.08 0 0 Z " fill="#212121" transform="translate(364,726)"/>
<path d="M0 0 C1.23204882 3.69614646 0.24394363 5.07168382 -1.171875 8.546875 C-2.45180775 12.3383739 -2.92846565 16.21351704 -3.47265625 20.16796875 C-3.99821709 22.99042513 -4.84525766 25.37907028 -6 28 C-6.66 28 -7.32 28 -8 28 C-7.79503906 27.0821875 -7.59007812 26.164375 -7.37890625 25.21875 C-5.60566778 17.41787565 -5.60566778 17.41787565 -4.5625 9.5 C-3.88361029 5.27579735 -2.58767375 3.33893388 0 0 Z " fill="#080808" transform="translate(213,825)"/>
<path d="M0 0 C2.78831632 1.39415816 3.49618923 3.30567237 5 6 C5.61875 7.0209375 5.61875 7.0209375 6.25 8.0625 C7 10 7 10 6.875 12.125 C6 14 6 14 4.25 15.25 C1.71262971 16.0957901 -0.34234296 16.14764761 -3 16 C-3.33 15.34 -3.66 14.68 -4 14 C-1.36 13.67 1.28 13.34 4 13 C2.87548273 10.0280615 1.77706209 7.66559313 0 5 C-0.125 2.3125 -0.125 2.3125 0 0 Z " fill="#282828" transform="translate(628,290)"/>
<path d="M0 0 C0.66 0.66 1.32 1.32 2 2 C1.44538086 2.02505615 0.89076172 2.0501123 0.31933594 2.07592773 C-2.20398843 2.19227927 -4.72697536 2.31482754 -7.25 2.4375 C-8.55904297 2.49647461 -8.55904297 2.49647461 -9.89453125 2.55664062 C-10.73886719 2.59853516 -11.58320313 2.64042969 -12.453125 2.68359375 C-13.22817383 2.72025146 -14.00322266 2.75690918 -14.80175781 2.79467773 C-16.9574976 2.99603015 -18.91801475 3.41729297 -21 4 C-20.67 3.01 -20.34 2.02 -20 1 C-13.63959122 -1.8910949 -6.76658878 -1.17350631 0 0 Z " fill="#1B1B1B" transform="translate(346,701)"/>
<path d="M0 0 C0.33 0.66 0.66 1.32 1 2 C0.01 2.495 0.01 2.495 -1 3 C-0.88693303 4.95894361 -0.88693303 4.95894361 0 7 C2.49034386 8.29660434 2.49034386 8.29660434 5 9 C2 10 2 10 -1 10 C-2.28333135 11.51422076 -2.28333135 11.51422076 -3.375 13.4375 C-5.6636648 16.88788827 -5.6636648 16.88788827 -8.8125 17.9375 C-9.534375 17.958125 -10.25625 17.97875 -11 18 C-11.33 17.34 -11.66 16.68 -12 16 C-11.2575 15.773125 -10.515 15.54625 -9.75 15.3125 C-6.35676279 13.69300042 -4.91094984 12.23391511 -3 9 C-3.13617572 5.75706416 -3.13617572 5.75706416 -4 3 C-2.68 2.01 -1.36 1.02 0 0 Z " fill="#090909" transform="translate(144,796)"/>
<path d="M0 0 C-1.47721422 3.45201639 -3.43794001 5.64961936 -6.125 8.25 C-6.84945312 8.95640625 -7.57390625 9.6628125 -8.3203125 10.390625 C-8.87460937 10.92171875 -9.42890625 11.4528125 -10 12 C-10.33 11.34 -10.66 10.68 -11 10 C-10.67 9.34 -10.34 8.68 -10 8 C-9.34 8 -8.68 8 -8 8 C-8.33 7.01 -8.66 6.02 -9 5 C-9.66 4.67 -10.32 4.34 -11 4 C-7.5224005 1.03760042 -4.56330809 0 0 0 Z " fill="#070707" transform="translate(838,208)"/>
<path d="M0 0 C2.625 0.1875 2.625 0.1875 5.625 2.1875 C5.625 2.8475 5.625 3.5075 5.625 4.1875 C3.645 3.5275 1.665 2.8675 -0.375 2.1875 C-0.78249675 6.44481568 -0.78249675 6.44481568 1.125 10.0625 C1.62 10.43375 2.115 10.805 2.625 11.1875 C-0.375 11.1875 -0.375 11.1875 -2.625 9 C-4.375 6.1875 -4.375 6.1875 -4.1875 3.4375 C-3.03263732 0.23941874 -3.03263732 0.23941874 0 0 Z " fill="#0D0D0D" transform="translate(130.375,791.8125)"/>
<path d="M0 0 C0 3 0 3 -1.94140625 4.9453125 C-2.80636719 5.66460937 -3.67132812 6.38390625 -4.5625 7.125 C-9.41231458 11.32633297 -13.27973906 15.78917094 -17 21 C-17.33 20.01 -17.66 19.02 -18 18 C-6.66287016 5.33029613 -6.66287016 5.33029613 0 0 Z " fill="#080808" transform="translate(758,235)"/>
<path d="M0 0 C0.99 0.33 1.98 0.66 3 1 C4.01591173 7.60342623 4.60569812 14.32705461 4 21 C3.34 21.66 2.68 22.32 2 23 C1.93941406 21.92621094 1.87882813 20.85242188 1.81640625 19.74609375 C1.73192349 18.30988685 1.64727946 16.87368942 1.5625 15.4375 C1.52318359 14.73302734 1.48386719 14.02855469 1.44335938 13.30273438 C1.17481721 8.8201459 0.69383803 4.43706503 0 0 Z " fill="#040404" transform="translate(657,119)"/>
<path d="M0 0 C0.66 0 1.32 0 2 0 C0.90868072 2.36452511 -0.25189377 4.3387537 -1.8125 6.4375 C-5.23403546 11.40841001 -6.96088521 17.36736324 -9 23 C-9.33 23 -9.66 23 -10 23 C-9.235902 14.21287296 -6.29243446 6.29243446 0 0 Z " fill="#0A0A0A" transform="translate(625,587)"/>
<path d="M0 0 C1.52519276 0.08937803 3.04681929 0.24537146 4.5625 0.4375 C5.38878906 0.53933594 6.21507812 0.64117188 7.06640625 0.74609375 C7.70449219 0.82988281 8.34257812 0.91367187 9 1 C9 1.33 9 1.66 9 2 C6.03 2 3.06 2 0 2 C0.33 3.32 0.66 4.64 1 6 C0.13375 5.938125 -0.7325 5.87625 -1.625 5.8125 C-5.44199033 6.02455502 -7.71077536 7.12044307 -11 9 C-9.6089997 5.52614061 -8.33695343 4.32405371 -4.9375 2.8125 C-2.26504211 1.70341129 -2.26504211 1.70341129 0 0 Z " fill="#0A0A0A" transform="translate(299,712)"/>
<path d="M0 0 C0.66 0.33 1.32 0.66 2 1 C2.91411575 4.32350695 3.25136415 7.56286848 3 11 C0.5625 13.625 0.5625 13.625 -2 15 C-6.00390625 10.60546875 -6.00390625 10.60546875 -7 9 C-6.67 8.01 -6.34 7.02 -6 6 C-5.38125 6.825 -4.7625 7.65 -4.125 8.5 C-3.42375 9.325 -2.7225 10.15 -2 11 C-1.34 11 -0.68 11 0 11 C0 7.37 0 3.74 0 0 Z " fill="#080808" transform="translate(569,663)"/>
<path d="M0 0 C0.33 0 0.66 0 1 0 C0.67 2.31 0.34 4.62 0 7 C-0.99 7 -1.98 7 -3 7 C-3 9.64 -3 12.28 -3 15 C-3.66 15 -4.32 15 -5 15 C-7.42857143 8.71428571 -7.42857143 8.71428571 -6 5 C-5.34 5.33 -4.68 5.66 -4 6 C-1.2160817 4.60804085 -1.02101003 2.84424221 0 0 Z " fill="#1C1C1C" transform="translate(203,878)"/>
<path d="M0 0 C0.66 0 1.32 0 2 0 C0.68938409 4.23429756 -0.94356259 8.07407404 -3 12 C-2.01 12.33 -1.02 12.66 0 13 C-1.32 14.98 -2.64 16.96 -4 19 C-4.66 18.67 -5.32 18.34 -6 18 C-5.67 17.67 -5.34 17.34 -5 17 C-4.67701029 15.27640943 -4.39164634 13.54570124 -4.125 11.8125 C-3.35238271 7.31727213 -2.32219207 3.90550484 0 0 Z " fill="#060606" transform="translate(227,790)"/>
<path d="M0 0 C0 2.84044741 -0.15221151 5.60654967 -0.375 8.4375 C-0.44460938 9.38496094 -0.51421875 10.33242188 -0.5859375 11.30859375 C-0.99097115 13.94131251 -1.6702674 15.71350858 -3 18 C-3.66 18 -4.32 18 -5 18 C-5.33 16.35 -5.66 14.7 -6 13 C-5.01 13.33 -4.02 13.66 -3 14 C-3.03480469 13.32453125 -3.06960938 12.6490625 -3.10546875 11.953125 C-3.13253906 11.06109375 -3.15960938 10.1690625 -3.1875 9.25 C-3.22230469 8.36828125 -3.25710938 7.4865625 -3.29296875 6.578125 C-2.94923684 3.55328417 -1.99772541 2.24416398 0 0 Z " fill="#050505" transform="translate(329,767)"/>
<path d="M0 0 C2.77931473 3.39694022 5.28402806 6.86031387 7.65625 10.546875 C9.32394494 12.35031255 10.61276004 12.61561391 13 13 C13.33 14.32 13.66 15.64 14 17 C8.30789194 15.0296549 6.03586602 13.42118932 3 8 C2.4225 7.113125 1.845 6.22625 1.25 5.3125 C0 3 0 3 0 0 Z " fill="#050505" transform="translate(375,754)"/>
<path d="M0 0 C0.66 0.33 1.32 0.66 2 1 C2.4375 3.5625 2.4375 3.5625 2 7 C-0.08682726 9.6203019 -2.46686248 11.8158151 -5 14 C-5.66 13.67 -6.32 13.34 -7 13 C-4.34061135 8.31441048 -4.34061135 8.31441048 -2.375 6.5 C-0.5275859 4.48463916 -0.35968507 2.66166951 0 0 Z " fill="#0E0E0E" transform="translate(605,224)"/>
<path d="M0 0 C0.33 0 0.66 0 1 0 C1.5625 2.625 1.5625 2.625 1 6 C-1.17973991 7.71737084 -3.47809636 9.06117806 -5.86328125 10.4765625 C-8.32096209 11.96295234 -8.32096209 11.96295234 -9.5625 15.375 C-9.7790625 16.674375 -9.7790625 16.674375 -10 18 C-10.66 18 -11.32 18 -12 18 C-11.80196971 13.74234868 -11.33172008 12.31697697 -8.1875 9.3125 C-6.3722438 7.99554942 -4.54574149 6.69306858 -2.6875 5.4375 C-0.67587034 3.72388955 -0.35544937 2.57700796 0 0 Z " fill="#0A0A0A" transform="translate(515,690)"/>
<path d="M0 0 C0.66 0 1.32 0 2 0 C2.33 2.97 2.66 5.94 3 9 C-1.08378283 8.25749403 -5.01939223 7.17076699 -9 6 C-6 4 -6 4 -4 4 C-4 4.66 -4 5.32 -4 6 C-2.68 5.34 -1.36 4.68 0 4 C0 2.68 0 1.36 0 0 Z " fill="#1F1F1F" transform="translate(652,499)"/>
<path d="M0 0 C0.99 0.495 0.99 0.495 2 1 C2 1.99 2 2.98 2 4 C2.66 4 3.32 4 4 4 C5.2890625 5.4609375 5.2890625 5.4609375 6.625 7.375 C7.07101563 8.00148438 7.51703125 8.62796875 7.9765625 9.2734375 C9 11 9 11 9 13 C6.03 12.505 6.03 12.505 3 12 C3 11.34 3 10.68 3 10 C3.66 10 4.32 10 5 10 C3.7625 8.9171875 3.7625 8.9171875 2.5 7.8125 C0 5 0 5 -0.3125 2.1875 C-0.209375 1.465625 -0.10625 0.74375 0 0 Z " fill="#0B0B0B" transform="translate(145,784)"/>
<path d="M0 0 C1.08719244 3.26157733 1.29071481 5.58410104 1 9 C0.01 9.66 -0.98 10.32 -2 11 C-3.89128342 9.10871658 -3.2366852 6.42932274 -3.328125 3.91015625 C-3.16570312 2.96462891 -3.16570312 2.96462891 -3 2 C-2.01 1.34 -1.02 0.68 0 0 Z " fill="#262626" transform="translate(218,767)"/>
<path d="M0 0 C4.75 0.75 4.75 0.75 7 3 C8.52056618 3.59834554 10.06612088 4.13506656 11.625 4.625 C12.44226563 4.88539063 13.25953125 5.14578125 14.1015625 5.4140625 C14.72804688 5.60742188 15.35453125 5.80078125 16 6 C15.67 7.32 15.34 8.64 15 10 C14.34 9.01 13.68 8.02 13 7 C10.68060793 6.2863409 8.34476551 5.6252708 6 5 C3.97843296 4.04435012 1.97033426 3.05725253 0 2 C0 1.34 0 0.68 0 0 Z " fill="#060606" transform="translate(432,715)"/>
<path d="M0 0 C3.26793215 0.37347796 4.81988805 0.84832678 7.375 3 C10.5881997 5.44815215 13.04937334 5.54415846 17 6 C17.33 6.66 17.66 7.32 18 8 C12.69793486 8.56807841 9.94536154 8.38505303 5.625 5.125 C3.64222141 3.48980013 1.81811708 1.81811708 0 0 Z " fill="#090909" transform="translate(605,208)"/>
<path d="M0 0 C1.32 0.66 2.64 1.32 4 2 C4 2.66 4 3.32 4 4 C4.99 4.33 5.98 4.66 7 5 C4.45543849 7.96865509 1.51005335 9.3619751 -2 11 C-1.71125 10.443125 -1.4225 9.88625 -1.125 9.3125 C0.0413253 6.91505355 1.0339881 4.48403061 2 2 C1.34 2 0.68 2 0 2 C0 1.34 0 0.68 0 0 Z " fill="#0F0F0F" transform="translate(216,759)"/>
<path d="M0 0 C4.06921267 1.5071158 6.79860056 4.33375958 9 8 C9.8125 11.875 9.8125 11.875 10 15 C9.01 15.495 9.01 15.495 8 16 C7.76216797 15.12988281 7.76216797 15.12988281 7.51953125 14.2421875 C5.86515164 8.70321487 3.91701809 5.23461416 0 1 C0 0.67 0 0.34 0 0 Z " fill="#0D0D0D" transform="translate(654,381)"/>
<path d="M0 0 C1.974667 2.96200051 2.71955354 5.09771632 3.625 8.5 C3.88539063 9.4590625 4.14578125 10.418125 4.4140625 11.40625 C5 14 5 14 5 17 C4.34 17 3.68 17 3 17 C2.29753005 15.1096624 1.61359151 13.21243172 0.9375 11.3125 C0.55464844 10.25675781 0.17179688 9.20101563 -0.22265625 8.11328125 C-1.0233052 4.90666208 -0.9237249 3.1313693 0 0 Z " fill="#0D0C0D" transform="translate(574,473)"/>
<path d="M0 0 C0.33 1.32 0.66 2.64 1 4 C0.01 4.495 0.01 4.495 -1 5 C-1.474375 5.804375 -1.94875 6.60875 -2.4375 7.4375 C-4 10 -4 10 -7 12 C-7 7.41765954 -6.4819242 6.94491878 -3.5 3.75 C-2.8503125 3.04359375 -2.200625 2.3371875 -1.53125 1.609375 C-0.77328125 0.81273437 -0.77328125 0.81273437 0 0 Z " fill="#0D0D0D" transform="translate(163,825)"/>
<path d="M0 0 C1.32 0.66 2.64 1.32 4 2 C3.125 5.875 3.125 5.875 2 7 C-0.35313555 7.07271741 -2.70833668 7.08370868 -5.0625 7.0625 C-6.35285156 7.05347656 -7.64320313 7.04445313 -8.97265625 7.03515625 C-9.97167969 7.02355469 -10.97070312 7.01195312 -12 7 C-12 6.67 -12 6.34 -12 6 C-7.71 5.34 -3.42 4.68 1 4 C0.67 2.68 0.34 1.36 0 0 Z " fill="#212121" transform="translate(356,720)"/>
<path d="M0 0 C0.66 0.33 1.32 0.66 2 1 C1.34 2.65 0.68 4.3 0 6 C0.433125 6.433125 0.86625 6.86625 1.3125 7.3125 C2.875 8.875 4.4375 10.4375 6 12 C3.125 11.6875 3.125 11.6875 0 11 C-2.30163882 7.54754176 -2.34490322 6.05261287 -2 2 C-1.34 1.34 -0.68 0.68 0 0 Z " fill="#0C0C0C" transform="translate(530,696)"/>
<path d="M0 0 C3 1 3 1 4 3 C4.039992 4.99960012 4.04346799 7.00047242 4 9 C3.67 7.68 3.34 6.36 3 5 C1.02 5.33 -0.96 5.66 -3 6 C-2.42655063 3.13275314 -2.1385485 2.1385485 0 0 Z " fill="#232323" transform="translate(819,146)"/>
<path d="M0 0 C0.226875 0.556875 0.45375 1.11375 0.6875 1.6875 C1.96985002 4.20719021 1.96985002 4.20719021 4.5625 6.4375 C7.11210474 9.1178537 7.69062979 10.39068083 8 14 C6 13 6 13 4.6875 10.6875 C2.82652001 7.72371705 0.73138124 6.14081233 -2 4 C-2 3.34 -2 2.68 -2 2 C-1.34 2 -0.68 2 0 2 C0 1.34 0 0.68 0 0 Z " fill="#090909" transform="translate(169,800)"/>
<path d="M0 0 C4.13621084 3.3810038 7.81316569 6.66590534 11 11 C8 11 8 11 6.24609375 9.3203125 C5.35083984 8.23363281 5.35083984 8.23363281 4.4375 7.125 C3.53837891 6.04605469 3.53837891 6.04605469 2.62109375 4.9453125 C2.08613281 4.30335937 1.55117188 3.66140625 1 3 C0.34 2.34 -0.32 1.68 -1 1 C-0.67 0.67 -0.34 0.34 0 0 Z " fill="#0B0B0B" transform="translate(668,83)"/>
<path d="M0 0 C0.99 0.33 1.98 0.66 3 1 C2.67 1.66 2.34 2.32 2 3 C1.67 3 1.34 3 1 3 C0.79913557 6.71599191 0.8480563 7.77208445 3 11 C1.0625 10.625 1.0625 10.625 -1 10 C-2.38125018 7.23749964 -2.19079306 5.05268901 -2 2 C-1.34 1.34 -0.68 0.68 0 0 Z " fill="#060606" transform="translate(161,929)"/>
<path d="M0 0 C2.99693138 0.99897713 4.02709413 1.65130253 6 4 C6 4.66 6 5.32 6 6 C4.1875 6.625 4.1875 6.625 2 7 C1.01 6.34 0.02 5.68 -1 5 C-0.67 3.35 -0.34 1.7 0 0 Z " fill="#262626" transform="translate(168,895)"/>
<path d="M0 0 C0.33 0.66 0.66 1.32 1 2 C1.66 2 2.32 2 3 2 C2.67 2.99 2.34 3.98 2 5 C1.01 5 0.02 5 -1 5 C-1 5.66 -1 6.32 -1 7 C-2.32 6.67 -3.64 6.34 -5 6 C-2.25 1.125 -2.25 1.125 0 0 Z " fill="#1F1F1F" transform="translate(152,821)"/>
<path d="M0 0 C1.32 0.33 2.64 0.66 4 1 C4 2.65 4 4.3 4 6 C0.65626525 5.44271087 -2.03312999 4.64826111 -5 3 C-4.67 2.34 -4.34 1.68 -4 1 C-2.68 1 -1.36 1 0 1 C0 0.67 0 0.34 0 0 Z " fill="#090909" transform="translate(241,746)"/>
<path d="M0 0 C0.33 0 0.66 0 1 0 C1.66 4.62 2.32 9.24 3 14 C2.34 14 1.68 14 1 14 C-1.25068913 9.49862174 -1.24661958 5.93239162 -1 1 C-0.67 0.67 -0.34 0.34 0 0 Z " fill="#212121" transform="translate(628,519)"/>
<path d="M0 0 C0.4125 0.495 0.825 0.99 1.25 1.5 C3.12202338 3.43386092 3.12202338 3.43386092 7 3 C7 3.66 7 4.32 7 5 C8.32 5.66 9.64 6.32 11 7 C7.7 6.67 4.4 6.34 1 6 C0.34 4.35 -0.32 2.7 -1 1 C-0.67 0.67 -0.34 0.34 0 0 Z " fill="#090909" transform="translate(147,884)"/>
<path d="M0 0 C0.75 1.75 0.75 1.75 1 4 C-0.6875 5.9375 -0.6875 5.9375 -3 8 C-4.35156675 9.65191491 -5.68962066 11.31522656 -7 13 C-7.66 12.67 -8.32 12.34 -9 12 C-6 8 -3 4 0 0 Z " fill="#040404" transform="translate(340,754)"/>
<path d="M0 0 C0.33 0.99 0.66 1.98 1 3 C-0.14453125 4.97265625 -0.14453125 4.97265625 -1.8125 7.0625 C-2.35519531 7.75472656 -2.89789063 8.44695313 -3.45703125 9.16015625 C-5 11 -5 11 -7 13 C-6.6297613 6.5825292 -6.6297613 6.5825292 -3.5 3.6875 C-2.2625 2.8521875 -2.2625 2.8521875 -1 2 C-0.67 1.34 -0.34 0.68 0 0 Z " fill="#060606" transform="translate(166,749)"/>
<path d="M0 0 C3.45101522 4.24740335 6.73279209 8.61105071 10 13 C9.34 13.66 8.68 14.32 8 15 C7.67 14.01 7.34 13.02 7 12 C5.3545622 10.31237149 3.68711423 8.6459651 2 7 C0 4 0 4 0 0 Z " fill="#0A0A0A" transform="translate(339,736)"/>
<path d="M0 0 C0.33 0.99 0.66 1.98 1 3 C-0.21484375 5.04296875 -0.21484375 5.04296875 -1.9375 7.1875 C-2.50339844 7.90292969 -3.06929687 8.61835937 -3.65234375 9.35546875 C-4.09707031 9.89816406 -4.54179688 10.44085937 -5 11 C-5.33 10.34 -5.66 9.68 -6 9 C-5.29296875 7.08984375 -5.29296875 7.08984375 -4.1875 4.9375 C-3.83042969 4.22464844 -3.47335937 3.51179687 -3.10546875 2.77734375 C-2 1 -2 1 0 0 Z " fill="#0E0B0C" transform="translate(548,584)"/>
<path d="M0 0 C0.99 1.485 0.99 1.485 2 3 C3.485 3.37125 3.485 3.37125 5 3.75 C5.99 4.1625 6.98 4.575 8 5 C9.375 8.625 9.375 8.625 10 12 C8.29159719 10.36587557 7.06546953 9.13093906 6 7 C4.02477154 5.95191959 2.02518491 4.9479589 0 4 C0 2.68 0 1.36 0 0 Z " fill="#050505" transform="translate(619,283)"/>
<path d="M0 0 C0.66 0.33 1.32 0.66 2 1 C3.1577506 4.47325181 3.06866652 7.36067448 3 11 C1.02 11.99 1.02 11.99 -1 13 C-0.9278125 12.39671875 -0.855625 11.7934375 -0.78125 11.171875 C-0.6884375 10.37265625 -0.595625 9.5734375 -0.5 8.75 C-0.4071875 7.96109375 -0.314375 7.1721875 -0.21875 6.359375 C0.06154619 3.73109603 0.06154619 3.73109603 0 0 Z " fill="#070707" transform="translate(163,874)"/>
<path d="M0 0 C1 2 1 2 0.4375 4.875 C-0.02551447 8.1822462 0.21619528 9.27182808 2 12 C0.68 12 -0.64 12 -2 12 C-3.35111663 4.19354839 -3.35111663 4.19354839 -2 1 C-1.34 0.67 -0.68 0.34 0 0 Z " fill="#1E1E1E" transform="translate(189,750)"/>
<path d="M0 0 C0.66 0.33 1.32 0.66 2 1 C-0.475 4.465 -0.475 4.465 -3 8 C-5.31 7.34 -7.62 6.68 -10 6 C-10 5.67 -10 5.34 -10 5 C-8.906875 4.9175 -7.81375 4.835 -6.6875 4.75 C-2.96723336 4.36310791 -2.96723336 4.36310791 -1.0625 1.9375 C-0.711875 1.298125 -0.36125 0.65875 0 0 Z " fill="#0D0D0D" transform="translate(217,744)"/>
<path d="M0 0 C1.32 0.33 2.64 0.66 4 1 C2.68 2.32 1.36 3.64 0 5 C0.66 5.33 1.32 5.66 2 6 C0.35 6.66 -1.3 7.32 -3 8 C-3 3.73173127 -2.62386487 3.06117568 0 0 Z " fill="#0B0B0B" transform="translate(464,705)"/>
<path d="M0 0 C0.66 0.66 1.32 1.32 2 2 C0.7934375 2.556875 0.7934375 2.556875 -0.4375 3.125 C-3.31172896 4.8109337 -3.31172896 4.8109337 -3.8125 8.1875 C-3.9053125 9.5796875 -3.9053125 9.5796875 -4 11 C-6 9 -6 9 -6.5 6.625 C-6 4 -6 4 -3 1.6875 C-2.01 1.130625 -1.02 0.57375 0 0 Z " fill="#0C0C0C" transform="translate(443,559)"/>
<path d="M0 0 C0 0.66 0 1.32 0 2 C-1.98 2.66 -3.96 3.32 -6 4 C-6 4.66 -6 5.32 -6 6 C-7.32 5.67 -8.64 5.34 -10 5 C-9.67 4.34 -9.34 3.68 -9 3 C-8.01 3 -7.02 3 -6 3 C-6 2.34 -6 1.68 -6 1 C-4 0 -4 0 0 0 Z " fill="#898989" transform="translate(234,797)"/>
<path d="M0 0 C0.99 0.33 1.98 0.66 3 1 C1.37660195 2.70884005 -0.29319053 4.37446717 -2 6 C-2.66 6 -3.32 6 -4 6 C-4.33 7.32 -4.66 8.64 -5 10 C-5.66 10 -6.32 10 -7 10 C-5.50867052 5.27745665 -5.50867052 5.27745665 -2.9375 3.875 C-2.298125 3.58625 -1.65875 3.2975 -1 3 C-0.67 2.01 -0.34 1.02 0 0 Z " fill="#0B0B0B" transform="translate(246,725)"/>
<path d="M0 0 C1.11375 0.4640625 1.11375 0.4640625 2.25 0.9375 C5.20826013 2.08046414 7.81934985 3 11 3 C10.34 4.32 9.68 5.64 9 7 C5.88626628 5.50079488 2.87771795 3.91847864 0 2 C0 1.34 0 0.68 0 0 Z " fill="#090909" transform="translate(350,703)"/>
<path d="M0 0 C2.67661233 3.35661654 3.81772389 5.62537331 4 10 C2.5625 12.375 2.5625 12.375 1 14 C0.34 13.67 -0.32 13.34 -1 13 C-0.34 12.34 0.32 11.68 1 11 C1.02207488 8.32186601 1.02207488 8.32186601 0.625 5.375 C0.51414062 4.37210938 0.40328125 3.36921875 0.2890625 2.3359375 C0.19367188 1.56507813 0.09828125 0.79421875 0 0 Z " fill="#070707" transform="translate(403,633)"/>
<path d="M0 0 C0.99 0 1.98 0 3 0 C3.66 3.3 4.32 6.6 5 10 C4.01 9.67 3.02 9.34 2 9 C1.26953125 6.93359375 1.26953125 6.93359375 0.8125 4.4375 C0.65394531 3.61121094 0.49539063 2.78492188 0.33203125 1.93359375 C0.16767578 0.97646484 0.16767578 0.97646484 0 0 Z " fill="#1E1E1E" transform="translate(620,327)"/>
<path d="M0 0 C0.66 0.33 1.32 0.66 2 1 C1.814375 1.61875 1.62875 2.2375 1.4375 2.875 C0.76313824 5.04160178 0.76313824 5.04160178 2 7 C2.039992 8.99960012 2.04346799 11.00047242 2 13 C-0.26568725 10.73431275 -0.55280451 9.56766015 -1.25 6.5 C-1.44078125 5.7059375 -1.6315625 4.911875 -1.828125 4.09375 C-1.88484375 3.4028125 -1.9415625 2.711875 -2 2 C-1.34 1.34 -0.68 0.68 0 0 Z " fill="#080808" transform="translate(580,669)"/>
<path d="M0 0 C0.33 0.66 0.66 1.32 1 2 C1.86625 2.37125 1.86625 2.37125 2.75 2.75 C6.00631306 4.55906281 7.71035376 7.07434092 10 10 C7 10 7 10 4.4375 7.625 C3.633125 6.75875 2.82875 5.8925 2 5 C1.34 4.34 0.68 3.68 0 3 C0 2.01 0 1.02 0 0 Z " fill="#0B0B0B" transform="translate(573,270)"/>
<path d="M0 0 C-0.4640625 0.8353125 -0.4640625 0.8353125 -0.9375 1.6875 C-2.52139334 5.13479727 -3 8.2207586 -3 12 C-5 10 -5 10 -5.3125 6.5625 C-5 3 -5 3 -3.625 1.0625 C-2 0 -2 0 0 0 Z " fill="#0B0B0B" transform="translate(184,920)"/>
<path d="M0 0 C1.65 0 3.3 0 5 0 C4.360625 0.45375 3.72125 0.9075 3.0625 1.375 C0.01774843 5.25013836 0.18350135 9.1922647 0 14 C-0.33 14 -0.66 14 -1 14 C-1.02694851 12.04174127 -1.04637218 10.08337774 -1.0625 8.125 C-1.07410156 7.03445313 -1.08570313 5.94390625 -1.09765625 4.8203125 C-1 2 -1 2 0 0 Z " fill="#ADADAD" transform="translate(188,881)"/>
<path d="M0 0 C0.99 0.66 1.98 1.32 3 2 C2.34 2 1.68 2 1 2 C0.34 3.65 -0.32 5.3 -1 7 C-1.66 7 -2.32 7 -3 7 C-3.33 5.68 -3.66 4.36 -4 3 C-2.68 2.01 -1.36 1.02 0 0 Z " fill="#0D0D0D" transform="translate(149,859)"/>
<path d="M0 0 C0.66 0.66 1.32 1.32 2 2 C1.38125 2.04125 0.7625 2.0825 0.125 2.125 C-0.57625 2.41375 -1.2775 2.7025 -2 3 C-3.3045656 5.99615946 -3.3045656 5.99615946 -4 9 C-4.99 9 -5.98 9 -7 9 C-5.20578369 4.9630133 -3.79448125 2.35519526 0 0 Z " fill="#080808" transform="translate(255,670)"/>
<path d="M0 0 C0 3.97054597 -1.3139381 5.16471244 -4 8 C-6.25 8.8125 -6.25 8.8125 -8 9 C-6.90101298 5.70303895 -6.05402613 4.95329411 -3.4375 2.8125 C-2.79683594 2.28269531 -2.15617188 1.75289062 -1.49609375 1.20703125 C-0.75552734 0.60955078 -0.75552734 0.60955078 0 0 Z " fill="#0C0C0C" transform="translate(645,211)"/>
<path d="M0 0 C1.98 0 3.96 0 6 0 C5.67 0.66 5.34 1.32 5 2 C3.68 2 2.36 2 1 2 C0.67 3.98 0.34 5.96 0 8 C-0.66 7.67 -1.32 7.34 -2 7 C-1.34 4.69 -0.68 2.38 0 0 Z " fill="#070707" transform="translate(169,740)"/>
<path d="M0 0 C2.125 0.375 2.125 0.375 4 1 C2.02 1.99 2.02 1.99 0 3 C0 3.66 0 4.32 0 5 C0.66 5 1.32 5 2 5 C2.33 5.99 2.66 6.98 3 8 C1.0625 7.25 1.0625 7.25 -1 6 C-1.875 4 -1.875 4 -2 2 C-1.34 1.34 -0.68 0.68 0 0 Z " fill="#0C0C0C" transform="translate(575,407)"/>
<path d="M0 0 C2.6486859 3.19668988 4.93992341 6.39486597 7 10 C6.01 10.495 6.01 10.495 5 11 C3.96680187 9.7391988 2.94875621 8.46596742 1.9375 7.1875 C1.08478516 6.12595703 1.08478516 6.12595703 0.21484375 5.04296875 C-0.18605469 4.36878906 -0.58695313 3.69460938 -1 3 C-0.67 2.01 -0.34 1.02 0 0 Z " fill="#080808" transform="translate(173,883)"/>
<path d="M0 0 C4.55015893 1.51671964 6.50057264 5.16891053 9 9 C8.01 9.495 8.01 9.495 7 10 C6.66226562 9.50628906 6.32453125 9.01257813 5.9765625 8.50390625 C5.53054688 7.86324219 5.08453125 7.22257813 4.625 6.5625 C4.18414062 5.92441406 3.74328125 5.28632812 3.2890625 4.62890625 C2.07839147 2.86259072 2.07839147 2.86259072 0 2 C0 1.34 0 0.68 0 0 Z " fill="#0E0E0E" transform="translate(314,769)"/>
<path d="M0 0 C0.66 0.33 1.32 0.66 2 1 C1.67 1.66 1.34 2.32 1 3 C3.97 3 6.94 3 10 3 C10 3.33 10 3.66 10 4 C4.06 4.495 4.06 4.495 -2 5 C-1 1 -1 1 0 0 Z " fill="#050505" transform="translate(344,722)"/>
<path d="M0 0 C0.33 0.66 0.66 1.32 1 2 C1.99 2.66 2.98 3.32 4 4 C0.7 4.33 -2.6 4.66 -6 5 C-2.25 1.125 -2.25 1.125 0 0 Z " fill="#DDDDDD" transform="translate(292,652)"/>
<path d="M0 0 C0.66 0.33 1.32 0.66 2 1 C1.67 3.97 1.34 6.94 1 10 C0.01 10 -0.98 10 -2 10 C-1.34 6.7 -0.68 3.4 0 0 Z " fill="#0E0D0D" transform="translate(458,556)"/>
<path d="M0 0 C-1.65 1.32 -3.3 2.64 -5 4 C-5.33 3.67 -5.66 3.34 -6 3 C-6.66 3.66 -7.32 4.32 -8 5 C-7.67 3.35 -7.34 1.7 -7 0 C-3.86650268 -1.04449911 -3.01031744 -0.93423645 0 0 Z " fill="#535353" transform="translate(628,353)"/>
<path d="M0 0 C0.66 0 1.32 0 2 0 C2.66 1.98 3.32 3.96 4 6 C2.68 6.33 1.36 6.66 0 7 C0 4.66666667 0 2.33333333 0 0 Z " fill="#0C0C0C" transform="translate(592,320)"/>
<path d="M0 0 C2.93200474 2.85276137 5.64315404 5.65079784 8 9 C7.01 9 6.02 9 5 9 C3.62131719 7.37064759 2.28725907 5.70250393 1 4 C0.34 3.67 -0.32 3.34 -1 3 C-0.67 2.01 -0.34 1.02 0 0 Z " fill="#0E0E0E" transform="translate(597,214)"/>
<path d="M0 0 C0.33 0.99 0.66 1.98 1 3 C-1.97 5.475 -1.97 5.475 -5 8 C-5 5 -5 5 -2.5 2.3125 C-1.675 1.549375 -0.85 0.78625 0 0 Z " fill="#101010" transform="translate(813,156)"/>
<path d="M0 0 C2.33944736 0.28730055 4.6739143 0.61936779 7 1 C6.67 1.66 6.34 2.32 6 3 C5.236875 2.938125 4.47375 2.87625 3.6875 2.8125 C0.95474688 2.74101915 0.95474688 2.74101915 -0.8125 4.5 C-1.204375 4.995 -1.59625 5.49 -2 6 C-1.125 1.125 -1.125 1.125 0 0 Z " fill="#0A0A0A" transform="translate(655,89)"/>
<path d="M0 0 C0.66 1.32 1.32 2.64 2 4 C-3.75 9 -3.75 9 -6 9 C-4.87952194 5.63856582 -3.50292817 4.42471166 -1 2 C-0.67 1.34 -0.34 0.68 0 0 Z " fill="#212121" transform="translate(231,690)"/>
<path d="M0 0 C0.66 0.33 1.32 0.66 2 1 C1.21718695 2.33855056 0.42348123 3.67073644 -0.375 5 C-0.81585937 5.7425 -1.25671875 6.485 -1.7109375 7.25 C-2.34902344 8.11625 -2.34902344 8.11625 -3 9 C-3.66 9 -4.32 9 -5 9 C-3.7508258 5.54074837 -2.32472205 2.85306797 0 0 Z " fill="#0F0E0F" transform="translate(533,605)"/>
<path d="M0 0 C0.66 0 1.32 0 2 0 C2.96070434 2.88211302 3.10581883 4.69850044 3.0625 7.6875 C3.05347656 8.49574219 3.04445313 9.30398438 3.03515625 10.13671875 C3.02355469 10.75160156 3.01195312 11.36648438 3 12 C2.67 12 2.34 12 2 12 C1.67 10.02 1.34 8.04 1 6 C0.67 6 0.34 6 0 6 C0 4.02 0 2.04 0 0 Z " fill="#333333" transform="translate(669,443)"/>
<path d="M0 0 C1.98 1.65 3.96 3.3 6 5 C3 6 3 6 0 6 C-1.125 2.25 -1.125 2.25 0 0 Z " fill="#2B2B2B" transform="translate(597,269)"/>
<path d="M0 0 C0.66 0.33 1.32 0.66 2 1 C1.6875 4.375 1.6875 4.375 1 8 C0.01 8.66 -0.98 9.32 -2 10 C-1.34 6.7 -0.68 3.4 0 0 Z " fill="#070707" transform="translate(252,774)"/>
<path d="M0 0 C0.061875 0.61875 0.12375 1.2375 0.1875 1.875 C0.828919 4.27761141 0.828919 4.27761141 3.5625 5.25 C4.366875 5.4975 5.17125 5.745 6 6 C5.34 6.66 4.68 7.32 4 8 C1.525 7.01 1.525 7.01 -1 6 C-0.67 4.02 -0.34 2.04 0 0 Z " fill="#373737" transform="translate(430,708)"/>
<path d="M0 0 C-1.65 1.32 -3.3 2.64 -5 4 C-5.33 3.34 -5.66 2.68 -6 2 C-8.02463255 1.34786708 -8.02463255 1.34786708 -10 1 C-6.78548731 -0.60725635 -3.56387464 -0.05748185 0 0 Z " fill="#181818" transform="translate(292,652)"/>
<path d="M0 0 C2.66666667 2.66666667 5.33333333 5.33333333 8 8 C5.2980567 7.63487253 3.41609148 7.30130763 1.1875 5.6875 C0 4 0 4 0 0 Z " fill="#080808" transform="translate(453,585)"/>
<path d="M0 0 C1.39195915 4.17587745 -0.17676781 6.13474776 -2 10 C-2.66 10 -3.32 10 -4 10 C-3.52449439 8.51965236 -3.04448784 7.04074979 -2.5625 5.5625 C-2.29566406 4.73878906 -2.02882813 3.91507812 -1.75390625 3.06640625 C-1 1 -1 1 0 0 Z " fill="#080808" transform="translate(582,454)"/>
<path d="M0 0 C0.66 0.33 1.32 0.66 2 1 C-1.96 4.465 -1.96 4.465 -6 8 C-6.66 7.34 -7.32 6.68 -8 6 C-5.36 4.02 -2.72 2.04 0 0 Z " fill="#0A0A0A" transform="translate(804,165)"/>
<path d="M0 0 C0.99 0.33 1.98 0.66 3 1 C2.42647107 4.87132028 0.51295648 7.08172796 -2 10 C-2.33 8.68 -2.66 7.36 -3 6 C-1.68 5.01 -0.36 4.02 1 3 C0.67 2.01 0.34 1.02 0 0 Z " fill="#2D2D2D" transform="translate(164,817)"/>
<path d="M0 0 C0.99 0 1.98 0 3 0 C1.25 3.875 1.25 3.875 -1 5 C-2.99960012 5.039992 -5.00047242 5.04346799 -7 5 C-7 4.67 -7 4.34 -7 4 C-6.030625 3.71125 -5.06125 3.4225 -4.0625 3.125 C-0.89335797 2.35785318 -0.89335797 2.35785318 0 0 Z " fill="#080808" transform="translate(206,762)"/>
<path d="M0 0 C2.4375 0.625 2.4375 0.625 5 2 C5.8125 5.125 5.8125 5.125 6 8 C5.01 7.67 4.02 7.34 3 7 C3 5.35 3 3.7 3 2 C2.01 1.67 1.02 1.34 0 1 C0 0.67 0 0.34 0 0 Z " fill="#0A0A0A" transform="translate(258,723)"/>
<path d="M0 0 C0.33 0.66 0.66 1.32 1 2 C0.22265625 3.7265625 0.22265625 3.7265625 -0.9375 5.625 C-1.618125 6.73875 -2.29875 7.8525 -3 9 C-3.66 8.34 -4.32 7.68 -5 7 C-2.25 1.125 -2.25 1.125 0 0 Z " fill="#090908" transform="translate(562,560)"/>
<path d="M0 0 C0.99 0 1.98 0 3 0 C3 0.66 3 1.32 3 2 C3.66 2 4.32 2 5 2 C5 3.65 5 5.3 5 7 C2.47411298 4.63707344 1.11179163 3.33537489 0 0 Z " fill="#CE2526" transform="translate(493,597)"/>
<path d="M0 0 C0.66 0 1.32 0 2 0 C3.625 2 3.625 2 5 4 C4.67 4.66 4.34 5.32 4 6 C4.66 6.33 5.32 6.66 6 7 C5.01 7 4.02 7 3 7 C0 2.77777778 0 2.77777778 0 0 Z " fill="#CC2827" transform="translate(485,584)"/>
</svg>
